<?xml version="1.0" encoding="UTF-8"?>
<svg id="Layer_1" data-name="Layer 1" xmlns="http://www.w3.org/2000/svg" viewBox="0 0 1216 848">
  <defs>
    <style>
      .cls-1 {
        fill: #c3a6bb;
      }

      .cls-2 {
        fill: #909091;
      }

      .cls-2, .cls-3, .cls-4, .cls-5 {
        stroke-width: 2px;
      }

      .cls-2, .cls-5 {
        stroke: #9fa1a4;
      }

      .cls-6 {
        fill: #d782c1;
      }

      .cls-7 {
        fill: none;
        stroke: #c3a6bb;
        stroke-width: 4px;
      }

      .cls-3 {
        fill: #2b2b2c;
      }

      .cls-3, .cls-4 {
        stroke: #6d6f72;
      }

      .cls-8 {
        fill: #3d4837;
      }

      .cls-4 {
        fill: #262729;
      }

      .cls-9 {
        fill: #191919;
      }

      .cls-10 {
        stroke: #d782c1;
      }

      .cls-10, .cls-11 {
        fill: #875779;
      }

      .cls-5 {
        fill: #5c5c5d;
      }

      .cls-12 {
        fill: #6d6f72;
      }
    </style>
  </defs>
  <rect class="cls-5" x="85" y="9.5" width="1099" height="786"/>
  <path class="cls-6" d="m31,8.5h53v788H31V8.5Z"/>
  <rect class="cls-10" x="8.5" y="9" width="22" height="384"/>
  <rect class="cls-10" x="8.5" y="409" width="22" height="387"/>
  <rect class="cls-9" x="95" y="19.5" width="1079" height="766"/>
  <rect class="cls-3" x="1129" y="800.5" width="38" height="38"/>
  <rect class="cls-3" x="1169" y="800.5" width="38" height="38"/>
  <circle class="cls-8" cx="1147.5" cy="819" r="11.5"/>
  <path class="cls-12" d="m1185.49,832.01v-23.44h3.98v23.44h-3.98Zm-9.73-9.73v-3.98h23.44v3.98h-23.44Z"/>
  <rect class="cls-4" x="9" y="800.5" width="1115" height="38"/>
  <rect class="cls-2" x="1185" y="9.5" width="22" height="382"/>
  <rect class="cls-2" x="1185" y="409.5" width="22" height="386"/>
  <rect class="cls-11" x="1185" y="270.5" width="21" height="121"/>
  <rect class="cls-11" x="1185" y="410.5" width="21" height="121"/>
  <rect class="cls-11" x="32" y="62.5" width="50" height="50"/>
  <rect class="cls-11" x="32" y="114.5" width="50" height="50"/>
  <rect class="cls-11" x="32" y="166.5" width="50" height="50"/>
  <rect class="cls-11" x="32" y="218.5" width="50" height="577"/>
  <path class="cls-1" d="m42,143.5v-6.5h15.5l-8-9.5h10.5l12,13-12,11.5h-10.5l8-8.5h-15.5Z"/>
  <path class="cls-1" d="m55.5,77.5l-13.5,25.5,14.5-12.5,3,6.5,13.5-25.5-14.5,12-3-6Z"/>
  <rect class="cls-11" x="32" y="10.5" width="50" height="50"/>
  <circle class="cls-1" cx="57" cy="35.5" r="6"/>
  <circle class="cls-7" cx="57" cy="35.5" r="13"/>
  <circle class="cls-1" cx="55.5" cy="194" r="10.5"/>
  <path class="cls-1" d="m72.5,188h-4c0-3-.2-9-3-9s-3,5.5-3,9h-4.5c0-4.5.3-12.5,7.5-12.5s7,8,7,12.5Z"/>
</svg>